<svg width="400" height="600" viewBox="0 0 400 600" fill="none" xmlns="http://www.w3.org/2000/svg">
  <!-- Main Card Container -->
  <rect width="400" height="600" rx="24" fill="white" />
  <rect x="0.5" y="0.5" width="399" height="599" rx="23.5" stroke="#E5E7EB" stroke-opacity="0.4" />

  <!-- Top Section: Visual Shield Area -->
  <path d="M0 24C0 10.7452 10.7452 0 24 0H376C389.255 0 400 10.7452 400 24V240H0V24Z" fill="#FDFBF7" fill-opacity="0.6" />
  
  <!-- Category Badge (Top Right) -->
  <rect x="290" y="20" width="90" height="28" rx="14" fill="white" />
  <text x="335" y="38" fill="#9CA3AF" font-family="sans-serif" font-size="10" font-weight="bold" text-anchor="middle" letter-spacing="0.12em">LASER</text>

  <!-- Brand Shield (Optimized Opacity: 12%) -->
  <g transform="translate(130, 50) scale(6)" opacity="0.12">
    <path d="M12 22s8-4 8-10V5l-8-3-8 3v7c0 6 8 10 8 10z" stroke="#C9A84C" stroke-width="1" stroke-linecap="round" stroke-linejoin="round"/>
    <path d="m9 12 2 2 4-4" stroke="#C9A84C" stroke-width="1" stroke-linecap="round" stroke-linejoin="round"/>
  </g>

  <!-- Content Section -->
  <text x="32" y="285" fill="#C5A267" font-family="sans-serif" font-size="11" font-weight="bold" letter-spacing="0.15em">KATEGORIE</text>
  <text x="32" y="330" fill="#111827" font-family="serif" font-size="34" font-weight="bold">Laser-Haarentfernung</text>

  <text x="32" y="390" fill="#9CA3AF" font-family="sans-serif" font-size="10" font-weight="bold" letter-spacing="0.08em">ERFORDERLICHE DOKUMENTE:</text>

  <!-- Optimized Document Tags -->
  <rect x="32" y="410" width="130" height="34" rx="8" fill="#FDFBF7" stroke="#E5E7EB" stroke-opacity="0.5" />
  <text x="97" y="431" fill="#4B5563" font-family="sans-serif" font-size="10" font-weight="600" text-anchor="middle">Bedienungsanleitung</text>

  <rect x="170" y="410" width="90" height="34" rx="8" fill="#FDFBF7" stroke="#E5E7EB" stroke-opacity="0.5" />
  <text x="215" y="431" fill="#4B5563" font-family="sans-serif" font-size="10" font-weight="600" text-anchor="middle">Fachkunde</text>

  <!-- Divider -->
  <line x1="32" y1="500" x2="368" y2="500" stroke="#F3F4F6" stroke-width="1.5" />

  <!-- Action Buttons -->
  <rect x="32" y="525" width="160" height="50" rx="12" fill="white" stroke="#C5A267" stroke-width="1.5" />
  <text x="112" y="556" fill="#C5A267" font-family="sans-serif" font-size="14" font-weight="bold" text-anchor="middle">Details</text>

  <rect x="208" y="525" width="160" height="50" rx="12" fill="#C5A267" />
  <text x="288" y="556" fill="white" font-family="sans-serif" font-size="14" font-weight="bold" text-anchor="middle">+ Hinzufügen</text>
</svg>
