<svg width="400" height="600" viewBox="0 0 400 600" fill="none" xmlns="http://www.w3.org/2000/svg">
  <!-- Main Card Container -->
  <rect width="400" height="600" rx="24" fill="white" />
  <rect x="0.5" y="0.5" width="399" height="599" rx="23.5" stroke="#E5E7EB" stroke-opacity="0.3" />

  <!-- Top Section: Visual Shield Area -->
  <path d="M0 24C0 10.7452 10.7452 0 24 0H376C389.255 0 400 10.7452 400 24V240H0V24Z" fill="#FDFBF7" fill-opacity="0.5" />
  
  <!-- Category Badge (Top Right) -->
  <rect x="300" y="20" width="80" height="28" rx="6" fill="white" fill-opacity="0.8" />
  <text x="340" y="38" fill="#9CA3AF" font-family="sans-serif" font-size="10" font-weight="bold" text-anchor="middle" letter-spacing="0.1em">LASER</text>

  <!-- Exact Catalog Shield Check Icon (Ultra-Transparent for High-End Aesthetic) -->
  <g transform="translate(140, 60) scale(5)" opacity="0.08">
    <path d="M12 22s8-4 8-10V5l-8-3-8 3v7c0 6 8 10 8 10z" stroke="#C9A84C" stroke-width="1" stroke-linecap="round" stroke-linejoin="round"/>
    <path d="m9 12 2 2 4-4" stroke="#C9A84C" stroke-width="1" stroke-linecap="round" stroke-linejoin="round"/>
  </g>

  <!-- Content Section -->
  <text x="24" y="280" fill="#C5A267" font-family="sans-serif" font-size="12" font-weight="bold" letter-spacing="0.1em" opacity="0.8">KATEGORIE</text>
  <text x="24" y="320" fill="#111827" font-family="serif" font-size="32" font-weight="bold">Laser-Haarentfernung</text>

  <text x="24" y="380" fill="#9CA3AF" font-family="sans-serif" font-size="10" font-weight="bold" letter-spacing="0.05em">ERFORDERLICHE DOKUMENTE:</text>

  <rect x="24" y="400" width="120" height="32" rx="6" fill="#FDFBF7" stroke="#E5E7EB" stroke-opacity="0.3" />
  <text x="84" y="420" fill="#6B7280" font-family="sans-serif" font-size="10" font-weight="medium" text-anchor="middle">Bedienungsanleitung</text>

  <rect x="152" y="400" width="80" height="32" rx="6" fill="#FDFBF7" stroke="#E5E7EB" stroke-opacity="0.3" />
  <text x="192" y="420" fill="#6B7280" font-family="sans-serif" font-size="10" font-weight="medium" text-anchor="middle">Fachkunde</text>

  <line x1="24" y1="500" x2="376" y2="500" stroke="#F3F4F6" stroke-width="1" />

  <rect x="24" y="520" width="168" height="48" rx="12" fill="white" stroke="#C5A267" stroke-width="1" stroke-opacity="0.5" />
  <text x="108" y="550" fill="#C5A267" font-family="sans-serif" font-size="14" font-weight="bold" text-anchor="middle">Details</text>

  <rect x="208" y="520" width="168" height="48" rx="12" fill="#C5A267" />
  <text x="292" y="550" fill="white" font-family="sans-serif" font-size="14" font-weight="bold" text-anchor="middle">+ Hinzufügen</text>
</svg>
